<mxfile host="app.diagrams.net" agent="Mozilla/5.0 (Windows NT 10.0; Win64; x64) AppleWebKit/537.36 (KHTML, like Gecko) Chrome/136.0.0.0 Safari/537.36" version="27.0.2">
  <diagram name="Page-1" id="e7e014a7-5840-1c2e-5031-d8a46d1fe8dd">
    <mxGraphModel dx="703" dy="776" grid="1" gridSize="10" guides="1" tooltips="1" connect="1" arrows="1" fold="1" page="1" pageScale="1" pageWidth="1169" pageHeight="826" background="none" math="0" shadow="0">
      <root>
        <mxCell id="0" />
        <mxCell id="1" parent="0" />
        <mxCell id="-W8Yc-sKx3KQ_jeNFnQ2-41" value="Funcionário" style="swimlane;fontStyle=0;childLayout=stackLayout;horizontal=1;startSize=26;fillColor=none;horizontalStack=0;resizeParent=1;resizeParentMax=0;resizeLast=0;collapsible=1;marginBottom=0;whiteSpace=wrap;html=1;" vertex="1" parent="1">
          <mxGeometry x="110" y="200" width="140" height="130" as="geometry" />
        </mxCell>
        <mxCell id="-W8Yc-sKx3KQ_jeNFnQ2-42" value="ID" style="text;strokeColor=none;fillColor=none;align=left;verticalAlign=top;spacingLeft=4;spacingRight=4;overflow=hidden;rotatable=0;points=[[0,0.5],[1,0.5]];portConstraint=eastwest;whiteSpace=wrap;html=1;fontStyle=5" vertex="1" parent="-W8Yc-sKx3KQ_jeNFnQ2-41">
          <mxGeometry y="26" width="140" height="26" as="geometry" />
        </mxCell>
        <mxCell id="-W8Yc-sKx3KQ_jeNFnQ2-43" value="Hierarquia_do_cargo" style="text;strokeColor=none;fillColor=none;align=left;verticalAlign=top;spacingLeft=4;spacingRight=4;overflow=hidden;rotatable=0;points=[[0,0.5],[1,0.5]];portConstraint=eastwest;whiteSpace=wrap;html=1;" vertex="1" parent="-W8Yc-sKx3KQ_jeNFnQ2-41">
          <mxGeometry y="52" width="140" height="26" as="geometry" />
        </mxCell>
        <mxCell id="-W8Yc-sKx3KQ_jeNFnQ2-44" value="Departamento" style="text;strokeColor=none;fillColor=none;align=left;verticalAlign=top;spacingLeft=4;spacingRight=4;overflow=hidden;rotatable=0;points=[[0,0.5],[1,0.5]];portConstraint=eastwest;whiteSpace=wrap;html=1;" vertex="1" parent="-W8Yc-sKx3KQ_jeNFnQ2-41">
          <mxGeometry y="78" width="140" height="26" as="geometry" />
        </mxCell>
        <mxCell id="-W8Yc-sKx3KQ_jeNFnQ2-61" value="CPF&amp;nbsp; &amp;nbsp;&lt;i&gt;(FK)&lt;/i&gt;" style="text;strokeColor=none;fillColor=none;align=left;verticalAlign=top;spacingLeft=4;spacingRight=4;overflow=hidden;rotatable=0;points=[[0,0.5],[1,0.5]];portConstraint=eastwest;whiteSpace=wrap;html=1;" vertex="1" parent="-W8Yc-sKx3KQ_jeNFnQ2-41">
          <mxGeometry y="104" width="140" height="26" as="geometry" />
        </mxCell>
        <mxCell id="-W8Yc-sKx3KQ_jeNFnQ2-45" value="Incidente" style="swimlane;fontStyle=0;childLayout=stackLayout;horizontal=1;startSize=26;fillColor=none;horizontalStack=0;resizeParent=1;resizeParentMax=0;resizeLast=0;collapsible=1;marginBottom=0;whiteSpace=wrap;html=1;" vertex="1" parent="1">
          <mxGeometry x="110" y="632" width="140" height="208" as="geometry" />
        </mxCell>
        <mxCell id="-W8Yc-sKx3KQ_jeNFnQ2-46" value="&lt;span style=&quot;font-weight: 700; text-decoration-line: underline;&quot;&gt;ID&lt;/span&gt;" style="text;strokeColor=none;fillColor=none;align=left;verticalAlign=top;spacingLeft=4;spacingRight=4;overflow=hidden;rotatable=0;points=[[0,0.5],[1,0.5]];portConstraint=eastwest;whiteSpace=wrap;html=1;" vertex="1" parent="-W8Yc-sKx3KQ_jeNFnQ2-45">
          <mxGeometry y="26" width="140" height="26" as="geometry" />
        </mxCell>
        <mxCell id="-W8Yc-sKx3KQ_jeNFnQ2-47" value="Tipo_incidente" style="text;strokeColor=none;fillColor=none;align=left;verticalAlign=top;spacingLeft=4;spacingRight=4;overflow=hidden;rotatable=0;points=[[0,0.5],[1,0.5]];portConstraint=eastwest;whiteSpace=wrap;html=1;" vertex="1" parent="-W8Yc-sKx3KQ_jeNFnQ2-45">
          <mxGeometry y="52" width="140" height="26" as="geometry" />
        </mxCell>
        <mxCell id="-W8Yc-sKx3KQ_jeNFnQ2-48" value="Gravidade" style="text;strokeColor=none;fillColor=none;align=left;verticalAlign=top;spacingLeft=4;spacingRight=4;overflow=hidden;rotatable=0;points=[[0,0.5],[1,0.5]];portConstraint=eastwest;whiteSpace=wrap;html=1;" vertex="1" parent="-W8Yc-sKx3KQ_jeNFnQ2-45">
          <mxGeometry y="78" width="140" height="26" as="geometry" />
        </mxCell>
        <mxCell id="-W8Yc-sKx3KQ_jeNFnQ2-63" value="Ação" style="text;strokeColor=none;fillColor=none;align=left;verticalAlign=top;spacingLeft=4;spacingRight=4;overflow=hidden;rotatable=0;points=[[0,0.5],[1,0.5]];portConstraint=eastwest;whiteSpace=wrap;html=1;" vertex="1" parent="-W8Yc-sKx3KQ_jeNFnQ2-45">
          <mxGeometry y="104" width="140" height="26" as="geometry" />
        </mxCell>
        <mxCell id="-W8Yc-sKx3KQ_jeNFnQ2-64" value="Data/hora" style="text;strokeColor=none;fillColor=none;align=left;verticalAlign=top;spacingLeft=4;spacingRight=4;overflow=hidden;rotatable=0;points=[[0,0.5],[1,0.5]];portConstraint=eastwest;whiteSpace=wrap;html=1;" vertex="1" parent="-W8Yc-sKx3KQ_jeNFnQ2-45">
          <mxGeometry y="130" width="140" height="26" as="geometry" />
        </mxCell>
        <mxCell id="-W8Yc-sKx3KQ_jeNFnQ2-65" value="CPF_usuário&amp;nbsp; &amp;nbsp;&lt;i&gt;(FK)&lt;/i&gt;" style="text;strokeColor=none;fillColor=none;align=left;verticalAlign=top;spacingLeft=4;spacingRight=4;overflow=hidden;rotatable=0;points=[[0,0.5],[1,0.5]];portConstraint=eastwest;whiteSpace=wrap;html=1;" vertex="1" parent="-W8Yc-sKx3KQ_jeNFnQ2-45">
          <mxGeometry y="156" width="140" height="26" as="geometry" />
        </mxCell>
        <mxCell id="-W8Yc-sKx3KQ_jeNFnQ2-66" value="ID_reserva&amp;nbsp; &amp;nbsp;&lt;i&gt;(FK)&lt;/i&gt;" style="text;strokeColor=none;fillColor=none;align=left;verticalAlign=top;spacingLeft=4;spacingRight=4;overflow=hidden;rotatable=0;points=[[0,0.5],[1,0.5]];portConstraint=eastwest;whiteSpace=wrap;html=1;" vertex="1" parent="-W8Yc-sKx3KQ_jeNFnQ2-45">
          <mxGeometry y="182" width="140" height="26" as="geometry" />
        </mxCell>
        <mxCell id="-W8Yc-sKx3KQ_jeNFnQ2-49" value="Fila de espera" style="swimlane;fontStyle=0;childLayout=stackLayout;horizontal=1;startSize=26;fillColor=none;horizontalStack=0;resizeParent=1;resizeParentMax=0;resizeLast=0;collapsible=1;marginBottom=0;whiteSpace=wrap;html=1;" vertex="1" parent="1">
          <mxGeometry x="110" y="390" width="140" height="182" as="geometry" />
        </mxCell>
        <mxCell id="-W8Yc-sKx3KQ_jeNFnQ2-50" value="&lt;span style=&quot;font-weight: 700; text-decoration-line: underline;&quot;&gt;ID&lt;/span&gt;" style="text;strokeColor=none;fillColor=none;align=left;verticalAlign=top;spacingLeft=4;spacingRight=4;overflow=hidden;rotatable=0;points=[[0,0.5],[1,0.5]];portConstraint=eastwest;whiteSpace=wrap;html=1;" vertex="1" parent="-W8Yc-sKx3KQ_jeNFnQ2-49">
          <mxGeometry y="26" width="140" height="26" as="geometry" />
        </mxCell>
        <mxCell id="-W8Yc-sKx3KQ_jeNFnQ2-58" value="Prioridade" style="text;strokeColor=none;fillColor=none;align=left;verticalAlign=top;spacingLeft=4;spacingRight=4;overflow=hidden;rotatable=0;points=[[0,0.5],[1,0.5]];portConstraint=eastwest;whiteSpace=wrap;html=1;" vertex="1" parent="-W8Yc-sKx3KQ_jeNFnQ2-49">
          <mxGeometry y="52" width="140" height="26" as="geometry" />
        </mxCell>
        <mxCell id="-W8Yc-sKx3KQ_jeNFnQ2-51" value="Data/hora" style="text;strokeColor=none;fillColor=none;align=left;verticalAlign=top;spacingLeft=4;spacingRight=4;overflow=hidden;rotatable=0;points=[[0,0.5],[1,0.5]];portConstraint=eastwest;whiteSpace=wrap;html=1;" vertex="1" parent="-W8Yc-sKx3KQ_jeNFnQ2-49">
          <mxGeometry y="78" width="140" height="26" as="geometry" />
        </mxCell>
        <mxCell id="-W8Yc-sKx3KQ_jeNFnQ2-59" value="Status" style="text;strokeColor=none;fillColor=none;align=left;verticalAlign=top;spacingLeft=4;spacingRight=4;overflow=hidden;rotatable=0;points=[[0,0.5],[1,0.5]];portConstraint=eastwest;whiteSpace=wrap;html=1;" vertex="1" parent="-W8Yc-sKx3KQ_jeNFnQ2-49">
          <mxGeometry y="104" width="140" height="26" as="geometry" />
        </mxCell>
        <mxCell id="-W8Yc-sKx3KQ_jeNFnQ2-52" value="CPF_usuário&amp;nbsp; &amp;nbsp;&lt;i&gt;(FK)&lt;/i&gt;" style="text;strokeColor=none;fillColor=none;align=left;verticalAlign=top;spacingLeft=4;spacingRight=4;overflow=hidden;rotatable=0;points=[[0,0.5],[1,0.5]];portConstraint=eastwest;whiteSpace=wrap;html=1;" vertex="1" parent="-W8Yc-sKx3KQ_jeNFnQ2-49">
          <mxGeometry y="130" width="140" height="26" as="geometry" />
        </mxCell>
        <mxCell id="-W8Yc-sKx3KQ_jeNFnQ2-57" value="ID_reserva&amp;nbsp; &amp;nbsp;&lt;i&gt;(FK)&lt;/i&gt;" style="text;strokeColor=none;fillColor=none;align=left;verticalAlign=top;spacingLeft=4;spacingRight=4;overflow=hidden;rotatable=0;points=[[0,0.5],[1,0.5]];portConstraint=eastwest;whiteSpace=wrap;html=1;" vertex="1" parent="-W8Yc-sKx3KQ_jeNFnQ2-49">
          <mxGeometry y="156" width="140" height="26" as="geometry" />
        </mxCell>
        <mxCell id="-W8Yc-sKx3KQ_jeNFnQ2-70" value="Eventos" style="swimlane;fontStyle=0;childLayout=stackLayout;horizontal=1;startSize=26;fillColor=none;horizontalStack=0;resizeParent=1;resizeParentMax=0;resizeLast=0;collapsible=1;marginBottom=0;whiteSpace=wrap;html=1;" vertex="1" parent="1">
          <mxGeometry x="390" y="54" width="140" height="156" as="geometry" />
        </mxCell>
        <mxCell id="-W8Yc-sKx3KQ_jeNFnQ2-71" value="&lt;span style=&quot;font-weight: 700; text-decoration-line: underline;&quot;&gt;ID&lt;/span&gt;" style="text;strokeColor=none;fillColor=none;align=left;verticalAlign=top;spacingLeft=4;spacingRight=4;overflow=hidden;rotatable=0;points=[[0,0.5],[1,0.5]];portConstraint=eastwest;whiteSpace=wrap;html=1;" vertex="1" parent="-W8Yc-sKx3KQ_jeNFnQ2-70">
          <mxGeometry y="26" width="140" height="26" as="geometry" />
        </mxCell>
        <mxCell id="-W8Yc-sKx3KQ_jeNFnQ2-72" value="Data/hora" style="text;strokeColor=none;fillColor=none;align=left;verticalAlign=top;spacingLeft=4;spacingRight=4;overflow=hidden;rotatable=0;points=[[0,0.5],[1,0.5]];portConstraint=eastwest;whiteSpace=wrap;html=1;" vertex="1" parent="-W8Yc-sKx3KQ_jeNFnQ2-70">
          <mxGeometry y="52" width="140" height="26" as="geometry" />
        </mxCell>
        <mxCell id="-W8Yc-sKx3KQ_jeNFnQ2-73" value="Título" style="text;strokeColor=none;fillColor=none;align=left;verticalAlign=top;spacingLeft=4;spacingRight=4;overflow=hidden;rotatable=0;points=[[0,0.5],[1,0.5]];portConstraint=eastwest;whiteSpace=wrap;html=1;" vertex="1" parent="-W8Yc-sKx3KQ_jeNFnQ2-70">
          <mxGeometry y="78" width="140" height="26" as="geometry" />
        </mxCell>
        <mxCell id="-W8Yc-sKx3KQ_jeNFnQ2-102" value="Numero_participantes" style="text;strokeColor=none;fillColor=none;align=left;verticalAlign=top;spacingLeft=4;spacingRight=4;overflow=hidden;rotatable=0;points=[[0,0.5],[1,0.5]];portConstraint=eastwest;whiteSpace=wrap;html=1;" vertex="1" parent="-W8Yc-sKx3KQ_jeNFnQ2-70">
          <mxGeometry y="104" width="140" height="26" as="geometry" />
        </mxCell>
        <mxCell id="-W8Yc-sKx3KQ_jeNFnQ2-103" value="CPF_responsável" style="text;strokeColor=none;fillColor=none;align=left;verticalAlign=top;spacingLeft=4;spacingRight=4;overflow=hidden;rotatable=0;points=[[0,0.5],[1,0.5]];portConstraint=eastwest;whiteSpace=wrap;html=1;" vertex="1" parent="-W8Yc-sKx3KQ_jeNFnQ2-70">
          <mxGeometry y="130" width="140" height="26" as="geometry" />
        </mxCell>
        <mxCell id="-W8Yc-sKx3KQ_jeNFnQ2-74" value="Usuario" style="swimlane;fontStyle=0;childLayout=stackLayout;horizontal=1;startSize=26;fillColor=none;horizontalStack=0;resizeParent=1;resizeParentMax=0;resizeLast=0;collapsible=1;marginBottom=0;whiteSpace=wrap;html=1;" vertex="1" parent="1">
          <mxGeometry x="390" y="278" width="140" height="182" as="geometry" />
        </mxCell>
        <mxCell id="-W8Yc-sKx3KQ_jeNFnQ2-75" value="&lt;b&gt;&lt;u&gt;CPF&lt;/u&gt;&lt;/b&gt;" style="text;strokeColor=none;fillColor=none;align=left;verticalAlign=top;spacingLeft=4;spacingRight=4;overflow=hidden;rotatable=0;points=[[0,0.5],[1,0.5]];portConstraint=eastwest;whiteSpace=wrap;html=1;" vertex="1" parent="-W8Yc-sKx3KQ_jeNFnQ2-74">
          <mxGeometry y="26" width="140" height="26" as="geometry" />
        </mxCell>
        <mxCell id="-W8Yc-sKx3KQ_jeNFnQ2-76" value="Nome" style="text;strokeColor=none;fillColor=none;align=left;verticalAlign=top;spacingLeft=4;spacingRight=4;overflow=hidden;rotatable=0;points=[[0,0.5],[1,0.5]];portConstraint=eastwest;whiteSpace=wrap;html=1;" vertex="1" parent="-W8Yc-sKx3KQ_jeNFnQ2-74">
          <mxGeometry y="52" width="140" height="26" as="geometry" />
        </mxCell>
        <mxCell id="-W8Yc-sKx3KQ_jeNFnQ2-77" value="Tipo_de_usuario" style="text;strokeColor=none;fillColor=none;align=left;verticalAlign=top;spacingLeft=4;spacingRight=4;overflow=hidden;rotatable=0;points=[[0,0.5],[1,0.5]];portConstraint=eastwest;whiteSpace=wrap;html=1;" vertex="1" parent="-W8Yc-sKx3KQ_jeNFnQ2-74">
          <mxGeometry y="78" width="140" height="26" as="geometry" />
        </mxCell>
        <mxCell id="-W8Yc-sKx3KQ_jeNFnQ2-104" value="Email" style="text;strokeColor=none;fillColor=none;align=left;verticalAlign=top;spacingLeft=4;spacingRight=4;overflow=hidden;rotatable=0;points=[[0,0.5],[1,0.5]];portConstraint=eastwest;whiteSpace=wrap;html=1;" vertex="1" parent="-W8Yc-sKx3KQ_jeNFnQ2-74">
          <mxGeometry y="104" width="140" height="26" as="geometry" />
        </mxCell>
        <mxCell id="-W8Yc-sKx3KQ_jeNFnQ2-105" value="Prioridade" style="text;strokeColor=none;fillColor=none;align=left;verticalAlign=top;spacingLeft=4;spacingRight=4;overflow=hidden;rotatable=0;points=[[0,0.5],[1,0.5]];portConstraint=eastwest;whiteSpace=wrap;html=1;" vertex="1" parent="-W8Yc-sKx3KQ_jeNFnQ2-74">
          <mxGeometry y="130" width="140" height="26" as="geometry" />
        </mxCell>
        <mxCell id="-W8Yc-sKx3KQ_jeNFnQ2-106" value="Foto" style="text;strokeColor=none;fillColor=none;align=left;verticalAlign=top;spacingLeft=4;spacingRight=4;overflow=hidden;rotatable=0;points=[[0,0.5],[1,0.5]];portConstraint=eastwest;whiteSpace=wrap;html=1;" vertex="1" parent="-W8Yc-sKx3KQ_jeNFnQ2-74">
          <mxGeometry y="156" width="140" height="26" as="geometry" />
        </mxCell>
        <mxCell id="-W8Yc-sKx3KQ_jeNFnQ2-78" value="Reserva" style="swimlane;fontStyle=0;childLayout=stackLayout;horizontal=1;startSize=26;fillColor=none;horizontalStack=0;resizeParent=1;resizeParentMax=0;resizeLast=0;collapsible=1;marginBottom=0;whiteSpace=wrap;html=1;" vertex="1" parent="1">
          <mxGeometry x="390" y="520" width="140" height="260" as="geometry" />
        </mxCell>
        <mxCell id="-W8Yc-sKx3KQ_jeNFnQ2-79" value="&lt;span style=&quot;font-weight: 700; text-decoration-line: underline;&quot;&gt;ID&lt;/span&gt;" style="text;strokeColor=none;fillColor=none;align=left;verticalAlign=top;spacingLeft=4;spacingRight=4;overflow=hidden;rotatable=0;points=[[0,0.5],[1,0.5]];portConstraint=eastwest;whiteSpace=wrap;html=1;" vertex="1" parent="-W8Yc-sKx3KQ_jeNFnQ2-78">
          <mxGeometry y="26" width="140" height="26" as="geometry" />
        </mxCell>
        <mxCell id="-W8Yc-sKx3KQ_jeNFnQ2-80" value="Data/hora_entrada" style="text;strokeColor=none;fillColor=none;align=left;verticalAlign=top;spacingLeft=4;spacingRight=4;overflow=hidden;rotatable=0;points=[[0,0.5],[1,0.5]];portConstraint=eastwest;whiteSpace=wrap;html=1;" vertex="1" parent="-W8Yc-sKx3KQ_jeNFnQ2-78">
          <mxGeometry y="52" width="140" height="26" as="geometry" />
        </mxCell>
        <mxCell id="-W8Yc-sKx3KQ_jeNFnQ2-81" value="Data/hora_saida" style="text;strokeColor=none;fillColor=none;align=left;verticalAlign=top;spacingLeft=4;spacingRight=4;overflow=hidden;rotatable=0;points=[[0,0.5],[1,0.5]];portConstraint=eastwest;whiteSpace=wrap;html=1;" vertex="1" parent="-W8Yc-sKx3KQ_jeNFnQ2-78">
          <mxGeometry y="78" width="140" height="26" as="geometry" />
        </mxCell>
        <mxCell id="-W8Yc-sKx3KQ_jeNFnQ2-107" value="Período" style="text;strokeColor=none;fillColor=none;align=left;verticalAlign=top;spacingLeft=4;spacingRight=4;overflow=hidden;rotatable=0;points=[[0,0.5],[1,0.5]];portConstraint=eastwest;whiteSpace=wrap;html=1;" vertex="1" parent="-W8Yc-sKx3KQ_jeNFnQ2-78">
          <mxGeometry y="104" width="140" height="26" as="geometry" />
        </mxCell>
        <mxCell id="-W8Yc-sKx3KQ_jeNFnQ2-108" value="Tipo_reserva" style="text;strokeColor=none;fillColor=none;align=left;verticalAlign=top;spacingLeft=4;spacingRight=4;overflow=hidden;rotatable=0;points=[[0,0.5],[1,0.5]];portConstraint=eastwest;whiteSpace=wrap;html=1;" vertex="1" parent="-W8Yc-sKx3KQ_jeNFnQ2-78">
          <mxGeometry y="130" width="140" height="26" as="geometry" />
        </mxCell>
        <mxCell id="-W8Yc-sKx3KQ_jeNFnQ2-112" value="CPF_usuario" style="text;strokeColor=none;fillColor=none;align=left;verticalAlign=top;spacingLeft=4;spacingRight=4;overflow=hidden;rotatable=0;points=[[0,0.5],[1,0.5]];portConstraint=eastwest;whiteSpace=wrap;html=1;" vertex="1" parent="-W8Yc-sKx3KQ_jeNFnQ2-78">
          <mxGeometry y="156" width="140" height="26" as="geometry" />
        </mxCell>
        <mxCell id="-W8Yc-sKx3KQ_jeNFnQ2-111" value="ID_veiculo" style="text;strokeColor=none;fillColor=none;align=left;verticalAlign=top;spacingLeft=4;spacingRight=4;overflow=hidden;rotatable=0;points=[[0,0.5],[1,0.5]];portConstraint=eastwest;whiteSpace=wrap;html=1;" vertex="1" parent="-W8Yc-sKx3KQ_jeNFnQ2-78">
          <mxGeometry y="182" width="140" height="26" as="geometry" />
        </mxCell>
        <mxCell id="-W8Yc-sKx3KQ_jeNFnQ2-110" value="ID_vaga" style="text;strokeColor=none;fillColor=none;align=left;verticalAlign=top;spacingLeft=4;spacingRight=4;overflow=hidden;rotatable=0;points=[[0,0.5],[1,0.5]];portConstraint=eastwest;whiteSpace=wrap;html=1;" vertex="1" parent="-W8Yc-sKx3KQ_jeNFnQ2-78">
          <mxGeometry y="208" width="140" height="26" as="geometry" />
        </mxCell>
        <mxCell id="-W8Yc-sKx3KQ_jeNFnQ2-109" value="ID_credencial" style="text;strokeColor=none;fillColor=none;align=left;verticalAlign=top;spacingLeft=4;spacingRight=4;overflow=hidden;rotatable=0;points=[[0,0.5],[1,0.5]];portConstraint=eastwest;whiteSpace=wrap;html=1;" vertex="1" parent="-W8Yc-sKx3KQ_jeNFnQ2-78">
          <mxGeometry y="234" width="140" height="26" as="geometry" />
        </mxCell>
        <mxCell id="-W8Yc-sKx3KQ_jeNFnQ2-82" value="Credencial" style="swimlane;fontStyle=0;childLayout=stackLayout;horizontal=1;startSize=26;fillColor=none;horizontalStack=0;resizeParent=1;resizeParentMax=0;resizeLast=0;collapsible=1;marginBottom=0;whiteSpace=wrap;html=1;" vertex="1" parent="1">
          <mxGeometry x="390" y="840" width="140" height="156" as="geometry" />
        </mxCell>
        <mxCell id="-W8Yc-sKx3KQ_jeNFnQ2-83" value="&lt;span style=&quot;font-weight: 700; text-decoration-line: underline;&quot;&gt;ID&lt;/span&gt;" style="text;strokeColor=none;fillColor=none;align=left;verticalAlign=top;spacingLeft=4;spacingRight=4;overflow=hidden;rotatable=0;points=[[0,0.5],[1,0.5]];portConstraint=eastwest;whiteSpace=wrap;html=1;" vertex="1" parent="-W8Yc-sKx3KQ_jeNFnQ2-82">
          <mxGeometry y="26" width="140" height="26" as="geometry" />
        </mxCell>
        <mxCell id="-W8Yc-sKx3KQ_jeNFnQ2-84" value="Data_emissao" style="text;strokeColor=none;fillColor=none;align=left;verticalAlign=top;spacingLeft=4;spacingRight=4;overflow=hidden;rotatable=0;points=[[0,0.5],[1,0.5]];portConstraint=eastwest;whiteSpace=wrap;html=1;" vertex="1" parent="-W8Yc-sKx3KQ_jeNFnQ2-82">
          <mxGeometry y="52" width="140" height="26" as="geometry" />
        </mxCell>
        <mxCell id="-W8Yc-sKx3KQ_jeNFnQ2-85" value="Data_expiração" style="text;strokeColor=none;fillColor=none;align=left;verticalAlign=top;spacingLeft=4;spacingRight=4;overflow=hidden;rotatable=0;points=[[0,0.5],[1,0.5]];portConstraint=eastwest;whiteSpace=wrap;html=1;" vertex="1" parent="-W8Yc-sKx3KQ_jeNFnQ2-82">
          <mxGeometry y="78" width="140" height="26" as="geometry" />
        </mxCell>
        <mxCell id="-W8Yc-sKx3KQ_jeNFnQ2-113" value="Status" style="text;strokeColor=none;fillColor=none;align=left;verticalAlign=top;spacingLeft=4;spacingRight=4;overflow=hidden;rotatable=0;points=[[0,0.5],[1,0.5]];portConstraint=eastwest;whiteSpace=wrap;html=1;" vertex="1" parent="-W8Yc-sKx3KQ_jeNFnQ2-82">
          <mxGeometry y="104" width="140" height="26" as="geometry" />
        </mxCell>
        <mxCell id="-W8Yc-sKx3KQ_jeNFnQ2-114" value="QRcode" style="text;strokeColor=none;fillColor=none;align=left;verticalAlign=top;spacingLeft=4;spacingRight=4;overflow=hidden;rotatable=0;points=[[0,0.5],[1,0.5]];portConstraint=eastwest;whiteSpace=wrap;html=1;" vertex="1" parent="-W8Yc-sKx3KQ_jeNFnQ2-82">
          <mxGeometry y="130" width="140" height="26" as="geometry" />
        </mxCell>
        <mxCell id="-W8Yc-sKx3KQ_jeNFnQ2-86" value="Notificações" style="swimlane;fontStyle=0;childLayout=stackLayout;horizontal=1;startSize=26;fillColor=none;horizontalStack=0;resizeParent=1;resizeParentMax=0;resizeLast=0;collapsible=1;marginBottom=0;whiteSpace=wrap;html=1;" vertex="1" parent="1">
          <mxGeometry x="630" y="174" width="140" height="182" as="geometry" />
        </mxCell>
        <mxCell id="-W8Yc-sKx3KQ_jeNFnQ2-87" value="&lt;span style=&quot;font-weight: 700; text-decoration-line: underline;&quot;&gt;ID&lt;/span&gt;" style="text;strokeColor=none;fillColor=none;align=left;verticalAlign=top;spacingLeft=4;spacingRight=4;overflow=hidden;rotatable=0;points=[[0,0.5],[1,0.5]];portConstraint=eastwest;whiteSpace=wrap;html=1;" vertex="1" parent="-W8Yc-sKx3KQ_jeNFnQ2-86">
          <mxGeometry y="26" width="140" height="26" as="geometry" />
        </mxCell>
        <mxCell id="-W8Yc-sKx3KQ_jeNFnQ2-88" value="Tipo_notificação" style="text;strokeColor=none;fillColor=none;align=left;verticalAlign=top;spacingLeft=4;spacingRight=4;overflow=hidden;rotatable=0;points=[[0,0.5],[1,0.5]];portConstraint=eastwest;whiteSpace=wrap;html=1;" vertex="1" parent="-W8Yc-sKx3KQ_jeNFnQ2-86">
          <mxGeometry y="52" width="140" height="26" as="geometry" />
        </mxCell>
        <mxCell id="-W8Yc-sKx3KQ_jeNFnQ2-89" value="Mensagem" style="text;strokeColor=none;fillColor=none;align=left;verticalAlign=top;spacingLeft=4;spacingRight=4;overflow=hidden;rotatable=0;points=[[0,0.5],[1,0.5]];portConstraint=eastwest;whiteSpace=wrap;html=1;" vertex="1" parent="-W8Yc-sKx3KQ_jeNFnQ2-86">
          <mxGeometry y="78" width="140" height="26" as="geometry" />
        </mxCell>
        <mxCell id="-W8Yc-sKx3KQ_jeNFnQ2-115" value="Data/hora" style="text;strokeColor=none;fillColor=none;align=left;verticalAlign=top;spacingLeft=4;spacingRight=4;overflow=hidden;rotatable=0;points=[[0,0.5],[1,0.5]];portConstraint=eastwest;whiteSpace=wrap;html=1;" vertex="1" parent="-W8Yc-sKx3KQ_jeNFnQ2-86">
          <mxGeometry y="104" width="140" height="26" as="geometry" />
        </mxCell>
        <mxCell id="-W8Yc-sKx3KQ_jeNFnQ2-116" value="CPF_usuario" style="text;strokeColor=none;fillColor=none;align=left;verticalAlign=top;spacingLeft=4;spacingRight=4;overflow=hidden;rotatable=0;points=[[0,0.5],[1,0.5]];portConstraint=eastwest;whiteSpace=wrap;html=1;" vertex="1" parent="-W8Yc-sKx3KQ_jeNFnQ2-86">
          <mxGeometry y="130" width="140" height="26" as="geometry" />
        </mxCell>
        <mxCell id="-W8Yc-sKx3KQ_jeNFnQ2-117" value="ID_reserva" style="text;strokeColor=none;fillColor=none;align=left;verticalAlign=top;spacingLeft=4;spacingRight=4;overflow=hidden;rotatable=0;points=[[0,0.5],[1,0.5]];portConstraint=eastwest;whiteSpace=wrap;html=1;" vertex="1" parent="-W8Yc-sKx3KQ_jeNFnQ2-86">
          <mxGeometry y="156" width="140" height="26" as="geometry" />
        </mxCell>
        <mxCell id="-W8Yc-sKx3KQ_jeNFnQ2-90" value="Pagamento" style="swimlane;fontStyle=0;childLayout=stackLayout;horizontal=1;startSize=26;fillColor=none;horizontalStack=0;resizeParent=1;resizeParentMax=0;resizeLast=0;collapsible=1;marginBottom=0;whiteSpace=wrap;html=1;" vertex="1" parent="1">
          <mxGeometry x="630" y="390" width="140" height="208" as="geometry" />
        </mxCell>
        <mxCell id="-W8Yc-sKx3KQ_jeNFnQ2-91" value="&lt;span style=&quot;font-weight: 700; text-decoration-line: underline;&quot;&gt;ID&lt;/span&gt;" style="text;strokeColor=none;fillColor=none;align=left;verticalAlign=top;spacingLeft=4;spacingRight=4;overflow=hidden;rotatable=0;points=[[0,0.5],[1,0.5]];portConstraint=eastwest;whiteSpace=wrap;html=1;" vertex="1" parent="-W8Yc-sKx3KQ_jeNFnQ2-90">
          <mxGeometry y="26" width="140" height="26" as="geometry" />
        </mxCell>
        <mxCell id="-W8Yc-sKx3KQ_jeNFnQ2-92" value="Valor" style="text;strokeColor=none;fillColor=none;align=left;verticalAlign=top;spacingLeft=4;spacingRight=4;overflow=hidden;rotatable=0;points=[[0,0.5],[1,0.5]];portConstraint=eastwest;whiteSpace=wrap;html=1;" vertex="1" parent="-W8Yc-sKx3KQ_jeNFnQ2-90">
          <mxGeometry y="52" width="140" height="26" as="geometry" />
        </mxCell>
        <mxCell id="-W8Yc-sKx3KQ_jeNFnQ2-93" value="Data/hora" style="text;strokeColor=none;fillColor=none;align=left;verticalAlign=top;spacingLeft=4;spacingRight=4;overflow=hidden;rotatable=0;points=[[0,0.5],[1,0.5]];portConstraint=eastwest;whiteSpace=wrap;html=1;" vertex="1" parent="-W8Yc-sKx3KQ_jeNFnQ2-90">
          <mxGeometry y="78" width="140" height="26" as="geometry" />
        </mxCell>
        <mxCell id="-W8Yc-sKx3KQ_jeNFnQ2-118" value="Status" style="text;strokeColor=none;fillColor=none;align=left;verticalAlign=top;spacingLeft=4;spacingRight=4;overflow=hidden;rotatable=0;points=[[0,0.5],[1,0.5]];portConstraint=eastwest;whiteSpace=wrap;html=1;" vertex="1" parent="-W8Yc-sKx3KQ_jeNFnQ2-90">
          <mxGeometry y="104" width="140" height="26" as="geometry" />
        </mxCell>
        <mxCell id="-W8Yc-sKx3KQ_jeNFnQ2-121" value="Método" style="text;strokeColor=none;fillColor=none;align=left;verticalAlign=top;spacingLeft=4;spacingRight=4;overflow=hidden;rotatable=0;points=[[0,0.5],[1,0.5]];portConstraint=eastwest;whiteSpace=wrap;html=1;" vertex="1" parent="-W8Yc-sKx3KQ_jeNFnQ2-90">
          <mxGeometry y="130" width="140" height="26" as="geometry" />
        </mxCell>
        <mxCell id="-W8Yc-sKx3KQ_jeNFnQ2-120" value="ID_reserva" style="text;strokeColor=none;fillColor=none;align=left;verticalAlign=top;spacingLeft=4;spacingRight=4;overflow=hidden;rotatable=0;points=[[0,0.5],[1,0.5]];portConstraint=eastwest;whiteSpace=wrap;html=1;" vertex="1" parent="-W8Yc-sKx3KQ_jeNFnQ2-90">
          <mxGeometry y="156" width="140" height="26" as="geometry" />
        </mxCell>
        <mxCell id="-W8Yc-sKx3KQ_jeNFnQ2-119" value="CPF_usuário" style="text;strokeColor=none;fillColor=none;align=left;verticalAlign=top;spacingLeft=4;spacingRight=4;overflow=hidden;rotatable=0;points=[[0,0.5],[1,0.5]];portConstraint=eastwest;whiteSpace=wrap;html=1;" vertex="1" parent="-W8Yc-sKx3KQ_jeNFnQ2-90">
          <mxGeometry y="182" width="140" height="26" as="geometry" />
        </mxCell>
        <mxCell id="-W8Yc-sKx3KQ_jeNFnQ2-94" value="Veículo" style="swimlane;fontStyle=0;childLayout=stackLayout;horizontal=1;startSize=26;fillColor=none;horizontalStack=0;resizeParent=1;resizeParentMax=0;resizeLast=0;collapsible=1;marginBottom=0;whiteSpace=wrap;html=1;" vertex="1" parent="1">
          <mxGeometry x="630" y="676" width="140" height="208" as="geometry" />
        </mxCell>
        <mxCell id="-W8Yc-sKx3KQ_jeNFnQ2-95" value="&lt;span style=&quot;font-weight: 700; text-decoration-line: underline;&quot;&gt;ID&lt;/span&gt;" style="text;strokeColor=none;fillColor=none;align=left;verticalAlign=top;spacingLeft=4;spacingRight=4;overflow=hidden;rotatable=0;points=[[0,0.5],[1,0.5]];portConstraint=eastwest;whiteSpace=wrap;html=1;" vertex="1" parent="-W8Yc-sKx3KQ_jeNFnQ2-94">
          <mxGeometry y="26" width="140" height="26" as="geometry" />
        </mxCell>
        <mxCell id="-W8Yc-sKx3KQ_jeNFnQ2-96" value="Placa" style="text;strokeColor=none;fillColor=none;align=left;verticalAlign=top;spacingLeft=4;spacingRight=4;overflow=hidden;rotatable=0;points=[[0,0.5],[1,0.5]];portConstraint=eastwest;whiteSpace=wrap;html=1;" vertex="1" parent="-W8Yc-sKx3KQ_jeNFnQ2-94">
          <mxGeometry y="52" width="140" height="26" as="geometry" />
        </mxCell>
        <mxCell id="-W8Yc-sKx3KQ_jeNFnQ2-97" value="Modelo" style="text;strokeColor=none;fillColor=none;align=left;verticalAlign=top;spacingLeft=4;spacingRight=4;overflow=hidden;rotatable=0;points=[[0,0.5],[1,0.5]];portConstraint=eastwest;whiteSpace=wrap;html=1;" vertex="1" parent="-W8Yc-sKx3KQ_jeNFnQ2-94">
          <mxGeometry y="78" width="140" height="26" as="geometry" />
        </mxCell>
        <mxCell id="-W8Yc-sKx3KQ_jeNFnQ2-122" value="Marca" style="text;strokeColor=none;fillColor=none;align=left;verticalAlign=top;spacingLeft=4;spacingRight=4;overflow=hidden;rotatable=0;points=[[0,0.5],[1,0.5]];portConstraint=eastwest;whiteSpace=wrap;html=1;" vertex="1" parent="-W8Yc-sKx3KQ_jeNFnQ2-94">
          <mxGeometry y="104" width="140" height="26" as="geometry" />
        </mxCell>
        <mxCell id="-W8Yc-sKx3KQ_jeNFnQ2-124" value="Tipo_de_veiculo" style="text;strokeColor=none;fillColor=none;align=left;verticalAlign=top;spacingLeft=4;spacingRight=4;overflow=hidden;rotatable=0;points=[[0,0.5],[1,0.5]];portConstraint=eastwest;whiteSpace=wrap;html=1;" vertex="1" parent="-W8Yc-sKx3KQ_jeNFnQ2-94">
          <mxGeometry y="130" width="140" height="26" as="geometry" />
        </mxCell>
        <mxCell id="-W8Yc-sKx3KQ_jeNFnQ2-125" value="Imagem_placa" style="text;strokeColor=none;fillColor=none;align=left;verticalAlign=top;spacingLeft=4;spacingRight=4;overflow=hidden;rotatable=0;points=[[0,0.5],[1,0.5]];portConstraint=eastwest;whiteSpace=wrap;html=1;" vertex="1" parent="-W8Yc-sKx3KQ_jeNFnQ2-94">
          <mxGeometry y="156" width="140" height="26" as="geometry" />
        </mxCell>
        <mxCell id="-W8Yc-sKx3KQ_jeNFnQ2-123" value="CPF_usuario" style="text;strokeColor=none;fillColor=none;align=left;verticalAlign=top;spacingLeft=4;spacingRight=4;overflow=hidden;rotatable=0;points=[[0,0.5],[1,0.5]];portConstraint=eastwest;whiteSpace=wrap;html=1;" vertex="1" parent="-W8Yc-sKx3KQ_jeNFnQ2-94">
          <mxGeometry y="182" width="140" height="26" as="geometry" />
        </mxCell>
        <mxCell id="-W8Yc-sKx3KQ_jeNFnQ2-98" value="Vagas" style="swimlane;fontStyle=0;childLayout=stackLayout;horizontal=1;startSize=26;fillColor=none;horizontalStack=0;resizeParent=1;resizeParentMax=0;resizeLast=0;collapsible=1;marginBottom=0;whiteSpace=wrap;html=1;" vertex="1" parent="1">
          <mxGeometry x="630" y="930" width="140" height="130" as="geometry" />
        </mxCell>
        <mxCell id="-W8Yc-sKx3KQ_jeNFnQ2-99" value="&lt;span style=&quot;font-weight: 700; text-decoration-line: underline;&quot;&gt;ID&lt;/span&gt;" style="text;strokeColor=none;fillColor=none;align=left;verticalAlign=top;spacingLeft=4;spacingRight=4;overflow=hidden;rotatable=0;points=[[0,0.5],[1,0.5]];portConstraint=eastwest;whiteSpace=wrap;html=1;" vertex="1" parent="-W8Yc-sKx3KQ_jeNFnQ2-98">
          <mxGeometry y="26" width="140" height="26" as="geometry" />
        </mxCell>
        <mxCell id="-W8Yc-sKx3KQ_jeNFnQ2-100" value="Status" style="text;strokeColor=none;fillColor=none;align=left;verticalAlign=top;spacingLeft=4;spacingRight=4;overflow=hidden;rotatable=0;points=[[0,0.5],[1,0.5]];portConstraint=eastwest;whiteSpace=wrap;html=1;" vertex="1" parent="-W8Yc-sKx3KQ_jeNFnQ2-98">
          <mxGeometry y="52" width="140" height="26" as="geometry" />
        </mxCell>
        <mxCell id="-W8Yc-sKx3KQ_jeNFnQ2-101" value="Tipo_de_vaga" style="text;strokeColor=none;fillColor=none;align=left;verticalAlign=top;spacingLeft=4;spacingRight=4;overflow=hidden;rotatable=0;points=[[0,0.5],[1,0.5]];portConstraint=eastwest;whiteSpace=wrap;html=1;" vertex="1" parent="-W8Yc-sKx3KQ_jeNFnQ2-98">
          <mxGeometry y="78" width="140" height="26" as="geometry" />
        </mxCell>
        <mxCell id="-W8Yc-sKx3KQ_jeNFnQ2-126" value="Localização" style="text;strokeColor=none;fillColor=none;align=left;verticalAlign=top;spacingLeft=4;spacingRight=4;overflow=hidden;rotatable=0;points=[[0,0.5],[1,0.5]];portConstraint=eastwest;whiteSpace=wrap;html=1;" vertex="1" parent="-W8Yc-sKx3KQ_jeNFnQ2-98">
          <mxGeometry y="104" width="140" height="26" as="geometry" />
        </mxCell>
        <mxCell id="-W8Yc-sKx3KQ_jeNFnQ2-127" style="edgeStyle=orthogonalEdgeStyle;rounded=0;orthogonalLoop=1;jettySize=auto;html=1;exitX=1;exitY=0.5;exitDx=0;exitDy=0;entryX=0;entryY=0.5;entryDx=0;entryDy=0;" edge="1" parent="1" source="-W8Yc-sKx3KQ_jeNFnQ2-61" target="-W8Yc-sKx3KQ_jeNFnQ2-75">
          <mxGeometry relative="1" as="geometry" />
        </mxCell>
        <mxCell id="-W8Yc-sKx3KQ_jeNFnQ2-128" style="edgeStyle=orthogonalEdgeStyle;rounded=0;orthogonalLoop=1;jettySize=auto;html=1;exitX=1;exitY=0.5;exitDx=0;exitDy=0;entryX=0;entryY=0.5;entryDx=0;entryDy=0;" edge="1" parent="1" source="-W8Yc-sKx3KQ_jeNFnQ2-52" target="-W8Yc-sKx3KQ_jeNFnQ2-75">
          <mxGeometry relative="1" as="geometry" />
        </mxCell>
        <mxCell id="-W8Yc-sKx3KQ_jeNFnQ2-129" style="edgeStyle=orthogonalEdgeStyle;rounded=0;orthogonalLoop=1;jettySize=auto;html=1;exitX=1;exitY=0.5;exitDx=0;exitDy=0;entryX=0;entryY=0.5;entryDx=0;entryDy=0;" edge="1" parent="1" source="-W8Yc-sKx3KQ_jeNFnQ2-57" target="-W8Yc-sKx3KQ_jeNFnQ2-79">
          <mxGeometry relative="1" as="geometry" />
        </mxCell>
        <mxCell id="-W8Yc-sKx3KQ_jeNFnQ2-130" style="edgeStyle=orthogonalEdgeStyle;rounded=0;orthogonalLoop=1;jettySize=auto;html=1;exitX=1;exitY=0.5;exitDx=0;exitDy=0;entryX=0;entryY=0.5;entryDx=0;entryDy=0;" edge="1" parent="1" source="-W8Yc-sKx3KQ_jeNFnQ2-65" target="-W8Yc-sKx3KQ_jeNFnQ2-75">
          <mxGeometry relative="1" as="geometry" />
        </mxCell>
        <mxCell id="-W8Yc-sKx3KQ_jeNFnQ2-131" style="edgeStyle=orthogonalEdgeStyle;rounded=0;orthogonalLoop=1;jettySize=auto;html=1;exitX=1;exitY=0.5;exitDx=0;exitDy=0;entryX=0;entryY=0.5;entryDx=0;entryDy=0;" edge="1" parent="1" source="-W8Yc-sKx3KQ_jeNFnQ2-66" target="-W8Yc-sKx3KQ_jeNFnQ2-79">
          <mxGeometry relative="1" as="geometry">
            <Array as="points">
              <mxPoint x="360" y="827" />
              <mxPoint x="360" y="559" />
            </Array>
          </mxGeometry>
        </mxCell>
        <mxCell id="-W8Yc-sKx3KQ_jeNFnQ2-132" style="edgeStyle=orthogonalEdgeStyle;rounded=0;orthogonalLoop=1;jettySize=auto;html=1;exitX=0;exitY=0.5;exitDx=0;exitDy=0;entryX=0;entryY=0.5;entryDx=0;entryDy=0;" edge="1" parent="1" source="-W8Yc-sKx3KQ_jeNFnQ2-103" target="-W8Yc-sKx3KQ_jeNFnQ2-75">
          <mxGeometry relative="1" as="geometry">
            <Array as="points">
              <mxPoint x="320" y="197" />
              <mxPoint x="320" y="317" />
            </Array>
          </mxGeometry>
        </mxCell>
        <mxCell id="-W8Yc-sKx3KQ_jeNFnQ2-133" style="edgeStyle=orthogonalEdgeStyle;rounded=0;orthogonalLoop=1;jettySize=auto;html=1;exitX=0;exitY=0.5;exitDx=0;exitDy=0;entryX=0;entryY=0.5;entryDx=0;entryDy=0;" edge="1" parent="1" source="-W8Yc-sKx3KQ_jeNFnQ2-109" target="-W8Yc-sKx3KQ_jeNFnQ2-83">
          <mxGeometry relative="1" as="geometry" />
        </mxCell>
        <mxCell id="-W8Yc-sKx3KQ_jeNFnQ2-135" style="edgeStyle=orthogonalEdgeStyle;rounded=0;orthogonalLoop=1;jettySize=auto;html=1;exitX=0;exitY=0.5;exitDx=0;exitDy=0;entryX=0;entryY=0.5;entryDx=0;entryDy=0;" edge="1" parent="1" source="-W8Yc-sKx3KQ_jeNFnQ2-112" target="-W8Yc-sKx3KQ_jeNFnQ2-75">
          <mxGeometry relative="1" as="geometry">
            <Array as="points">
              <mxPoint x="370" y="689" />
              <mxPoint x="370" y="317" />
            </Array>
          </mxGeometry>
        </mxCell>
        <mxCell id="-W8Yc-sKx3KQ_jeNFnQ2-136" style="edgeStyle=orthogonalEdgeStyle;rounded=0;orthogonalLoop=1;jettySize=auto;html=1;exitX=0;exitY=0.5;exitDx=0;exitDy=0;entryX=1;entryY=0.5;entryDx=0;entryDy=0;" edge="1" parent="1" source="-W8Yc-sKx3KQ_jeNFnQ2-116" target="-W8Yc-sKx3KQ_jeNFnQ2-75">
          <mxGeometry relative="1" as="geometry" />
        </mxCell>
        <mxCell id="-W8Yc-sKx3KQ_jeNFnQ2-137" style="edgeStyle=orthogonalEdgeStyle;rounded=0;orthogonalLoop=1;jettySize=auto;html=1;exitX=0;exitY=0.5;exitDx=0;exitDy=0;entryX=1;entryY=0.5;entryDx=0;entryDy=0;" edge="1" parent="1" source="-W8Yc-sKx3KQ_jeNFnQ2-120" target="-W8Yc-sKx3KQ_jeNFnQ2-79">
          <mxGeometry relative="1" as="geometry" />
        </mxCell>
        <mxCell id="-W8Yc-sKx3KQ_jeNFnQ2-138" style="edgeStyle=orthogonalEdgeStyle;rounded=0;orthogonalLoop=1;jettySize=auto;html=1;exitX=0;exitY=0.5;exitDx=0;exitDy=0;entryX=1;entryY=0.5;entryDx=0;entryDy=0;" edge="1" parent="1" source="-W8Yc-sKx3KQ_jeNFnQ2-117" target="-W8Yc-sKx3KQ_jeNFnQ2-79">
          <mxGeometry relative="1" as="geometry" />
        </mxCell>
        <mxCell id="-W8Yc-sKx3KQ_jeNFnQ2-139" style="edgeStyle=orthogonalEdgeStyle;rounded=0;orthogonalLoop=1;jettySize=auto;html=1;exitX=0;exitY=0.5;exitDx=0;exitDy=0;entryX=1;entryY=0.5;entryDx=0;entryDy=0;" edge="1" parent="1" source="-W8Yc-sKx3KQ_jeNFnQ2-119" target="-W8Yc-sKx3KQ_jeNFnQ2-75">
          <mxGeometry relative="1" as="geometry">
            <Array as="points">
              <mxPoint x="560" y="585" />
              <mxPoint x="560" y="317" />
            </Array>
          </mxGeometry>
        </mxCell>
        <mxCell id="-W8Yc-sKx3KQ_jeNFnQ2-140" style="edgeStyle=orthogonalEdgeStyle;rounded=0;orthogonalLoop=1;jettySize=auto;html=1;exitX=1;exitY=0.5;exitDx=0;exitDy=0;entryX=0;entryY=0.5;entryDx=0;entryDy=0;" edge="1" parent="1" source="-W8Yc-sKx3KQ_jeNFnQ2-111" target="-W8Yc-sKx3KQ_jeNFnQ2-95">
          <mxGeometry relative="1" as="geometry" />
        </mxCell>
        <mxCell id="-W8Yc-sKx3KQ_jeNFnQ2-141" style="edgeStyle=orthogonalEdgeStyle;rounded=0;orthogonalLoop=1;jettySize=auto;html=1;exitX=0;exitY=0.5;exitDx=0;exitDy=0;entryX=1;entryY=0.5;entryDx=0;entryDy=0;" edge="1" parent="1" source="-W8Yc-sKx3KQ_jeNFnQ2-123" target="-W8Yc-sKx3KQ_jeNFnQ2-75">
          <mxGeometry relative="1" as="geometry">
            <Array as="points">
              <mxPoint x="560" y="871" />
              <mxPoint x="560" y="317" />
            </Array>
          </mxGeometry>
        </mxCell>
        <mxCell id="-W8Yc-sKx3KQ_jeNFnQ2-142" style="edgeStyle=orthogonalEdgeStyle;rounded=0;orthogonalLoop=1;jettySize=auto;html=1;exitX=1;exitY=0.5;exitDx=0;exitDy=0;entryX=0;entryY=0.5;entryDx=0;entryDy=0;" edge="1" parent="1" source="-W8Yc-sKx3KQ_jeNFnQ2-110" target="-W8Yc-sKx3KQ_jeNFnQ2-99">
          <mxGeometry relative="1" as="geometry" />
        </mxCell>
      </root>
    </mxGraphModel>
  </diagram>
</mxfile>
